<?xml version="1.0" encoding="UTF-8"?>
<svg width="512" height="512" viewBox="0 0 512 512" fill="none" xmlns="http://www.w3.org/2000/svg">
  <rect width="512" height="512" rx="256" fill="#388E3C"/>
  <path d="M256 128C179.264 128 117.333 189.931 117.333 266.667C117.333 343.403 179.264 405.333 256 405.333C332.736 405.333 394.667 343.403 394.667 266.667C394.667 189.931 332.736 128 256 128ZM256 373.333C196.949 373.333 149.333 325.717 149.333 266.667C149.333 207.616 196.949 160 256 160C315.051 160 362.667 207.616 362.667 266.667C362.667 325.717 315.051 373.333 256 373.333Z" fill="white"/>
  <path d="M256 192C214.827 192 181.333 225.493 181.333 266.667C181.333 307.84 214.827 341.333 256 341.333C297.173 341.333 330.667 307.84 330.667 266.667C330.667 225.493 297.173 192 256 192ZM256 309.333C232.459 309.333 213.333 290.208 213.333 266.667C213.333 243.125 232.459 224 256 224C279.541 224 298.667 243.125 298.667 266.667C298.667 290.208 279.541 309.333 256 309.333Z" fill="white"/>
</svg> 